<svg id="Layer_1" data-name="Layer 1" xmlns="http://www.w3.org/2000/svg" viewBox="0 0 24.06 24.06"><path d="M18.72,9.26a5,5,0,0,0-.31-1.63,3.53,3.53,0,0,0-2-2,5.23,5.23,0,0,0-1.63-.31c-.72,0-.94,0-2.78,0s-2,0-2.77,0a5.49,5.49,0,0,0-1.64.31,3.61,3.61,0,0,0-1.19.78,3.53,3.53,0,0,0-.77,1.2,4.71,4.71,0,0,0-.31,1.63c0,.72,0,.94,0,2.77s0,2.06,0,2.78a4.76,4.76,0,0,0,.31,1.63,3.63,3.63,0,0,0,.77,1.2,3.59,3.59,0,0,0,1.19.77,4.93,4.93,0,0,0,1.64.31c.72,0,.95,0,2.77,0s2.06,0,2.78,0a4.71,4.71,0,0,0,1.63-.31,3.49,3.49,0,0,0,2-2,5.07,5.07,0,0,0,.31-1.63c0-.72,0-1,0-2.78S18.74,10,18.72,9.26Zm-1.21,5.49A4.31,4.31,0,0,1,17.28,16,2.3,2.3,0,0,1,16,17.28a3.72,3.72,0,0,1-1.24.23c-.71,0-.93,0-2.73,0s-2,0-2.71,0a4,4,0,0,1-1.26-.23,2.43,2.43,0,0,1-.77-.5,2.13,2.13,0,0,1-.5-.77,3.72,3.72,0,0,1-.23-1.26c0-.71,0-.92,0-2.72s0-2,0-2.72a3.59,3.59,0,0,1,.23-1.25,2,2,0,0,1,.5-.77,2.3,2.3,0,0,1,.77-.51,4.31,4.31,0,0,1,1.26-.23c.71,0,.91,0,2.71,0s2,0,2.73,0A4,4,0,0,1,16,6.78a2,2,0,0,1,.77.51,2,2,0,0,1,.52.77,4.15,4.15,0,0,1,.23,1.25c0,.71,0,.93,0,2.72S17.53,14,17.51,14.75Z"/><circle cx="15.62" cy="8.44" r="0.81"/><path d="M12,8.58A3.46,3.46,0,1,0,15.48,12,3.45,3.45,0,0,0,12,8.58Zm0,5.69A2.24,2.24,0,1,1,14.27,12,2.23,2.23,0,0,1,12,14.27Z"/><path d="M12,0A12,12,0,1,0,24,12,12,12,0,0,0,12,0Zm0,23A11,11,0,1,1,23,12,11,11,0,0,1,12,23Z"/></svg>