<svg id="Layer_1" data-name="Layer 1" xmlns="http://www.w3.org/2000/svg" viewBox="0 0 24.06 24.06"><path d="M9.55,17.74a7.93,7.93,0,0,1-4.3-1.26.5.5,0,0,1-.2-.59.51.51,0,0,1,.53-.33,4.73,4.73,0,0,0,2.55-.39,3.11,3.11,0,0,1-1.65-1.88.49.49,0,0,1,.08-.45,3.18,3.18,0,0,1-1-2.32.54.54,0,0,1,.25-.45l.1-.05a3.2,3.2,0,0,1-.33-1.4A3.09,3.09,0,0,1,6,7.05a.47.47,0,0,1,.39-.25A.5.5,0,0,1,6.8,7a7,7,0,0,0,4.47,2.51v0a3.14,3.14,0,0,1,5.22-2.34c.66-.11,1.68-.22,1.73-.23a.51.51,0,0,1,.48.24.5.5,0,0,1,0,.54,6.21,6.21,0,0,0-.35.65,5.15,5.15,0,0,1-.8,1.32v.12A7.91,7.91,0,0,1,9.55,17.74Zm-2-1.3a7,7,0,0,0,2,.3,6.92,6.92,0,0,0,7-7c0-.1,0-.21,0-.31A.52.52,0,0,1,16.74,9a3.39,3.39,0,0,0,.65-1c-.36,0-.73.1-1,.15A.5.5,0,0,1,16,8a2.14,2.14,0,0,0-3.69,1.46,2.44,2.44,0,0,0,.05.48.51.51,0,0,1-.1.44.52.52,0,0,1-.41.18A8,8,0,0,1,6.59,8.24a2.33,2.33,0,0,0,0,.38,2.16,2.16,0,0,0,1,1.78.49.49,0,0,1,.2.57.47.47,0,0,1-.49.34,3.31,3.31,0,0,1-.54-.06,2.13,2.13,0,0,0,1.57,1.36.48.48,0,0,1,.4.47.5.5,0,0,1-.36.5l-.48.09a2.13,2.13,0,0,0,1.62.8.5.5,0,0,1,.47.34.49.49,0,0,1-.17.55A5.7,5.7,0,0,1,7.51,16.44Z"/><path d="M12,24A12,12,0,1,1,24,12,12,12,0,0,1,12,24ZM12,1A11,11,0,1,0,23,12,11,11,0,0,0,12,1Z"/></svg>