<svg id="Layer_1" data-name="Layer 1" xmlns="http://www.w3.org/2000/svg" viewBox="0 0 24.06 24.06"><defs><style>.cls-1{fill:#fa9e74;}</style></defs><polygon class="cls-1" points="10.37 14.46 14.58 12.03 10.37 9.6 10.37 14.46"/><path class="cls-1" d="M12,1A11,11,0,1,1,1,12,11,11,0,0,1,12,1m0,17.25a42.57,42.57,0,0,0,6.13-.34,2.92,2.92,0,0,0,2-2,20,20,0,0,0,.34-3.85,18.92,18.92,0,0,0-.35-3.89,2.86,2.86,0,0,0-2-2A40,40,0,0,0,12,5.78a42.42,42.42,0,0,0-6.13.34,2.9,2.9,0,0,0-2,2.05A20,20,0,0,0,3.53,12a20.09,20.09,0,0,0,.34,3.87,2.89,2.89,0,0,0,2,2,40,40,0,0,0,6.13.36M12,0A12,12,0,1,0,24,12,12,12,0,0,0,12,0Zm0,17.25A44.2,44.2,0,0,1,6.16,17a1.89,1.89,0,0,1-1.32-1.32A19.73,19.73,0,0,1,4.53,12a19.79,19.79,0,0,1,.31-3.61A1.9,1.9,0,0,1,6.16,7.09,45.45,45.45,0,0,1,12,6.78a44.12,44.12,0,0,1,5.87.32,1.89,1.89,0,0,1,1.32,1.32A19,19,0,0,1,19.53,12a19.79,19.79,0,0,1-.31,3.61A1.89,1.89,0,0,1,17.9,17a45.53,45.53,0,0,1-5.87.31Z"/></svg>